<svg xmlns="http://www.w3.org/2000/svg" viewBox="0 0 349.14 115.25"><defs><style>.cls-1{font-size:55.71px;}.cls-1,.cls-10,.cls-6,.cls-8{fill:#fff;}.cls-1,.cls-8{font-family:FASTTRACKRegular, FAST-TRACK;}.cls-2{letter-spacing:-0.01em;}.cls-3{letter-spacing:-0.04em;}.cls-4{letter-spacing:-0.04em;}.cls-5{letter-spacing:-0.01em;}.cls-6{stroke:#fff;}.cls-6,.cls-7{stroke-miterlimit:10;}.cls-7{fill:#55b6ff;stroke:#55b6ff;}.cls-8{font-size:36.63px;}.cls-9{letter-spacing:-0.05em;}</style></defs><g id="Capa_2" data-name="Capa 2"><g id="Capa_2-2" data-name="Capa 2"><text class="cls-1" transform="translate(57.29 72.92)"><tspan class="cls-2">O</tspan><tspan x="32.92" y="0">L</tspan><tspan class="cls-3" x="62.28" y="0">A</tspan><tspan x="93.53" y="0">RIZ</tspan><tspan class="cls-4" x="173.98" y="0">A</tspan><tspan class="cls-5" x="205.23" y="0">D</tspan><tspan x="238.49" y="0">O </tspan></text><path class="cls-6" d="M.5,3.89Q.56,17.12.61,30.35A5.32,5.32,0,0,0,7,34.54L7.17.62S2.54-.4.5,3.89Z"/><path class="cls-6" d="M88.44,10.75H81.88V6.61l-23.57-2,0-4.09L10.79.73,11,34.2,12.6,34v6.34S6.27,48.67,8.08,58.62c0,0,3.84,10.86,11.76,12.67-.23.22,21,.9,21,.9L51.05,33.75h7.46l0-3.66,23.4-2.68V24.85h6.56Zm-74.33-2H27.38v3.77H14.11Zm0,7.24H27.38V19.8H14.11Zm0,10V22.31H27.38v3.77Z"/><polygon class="cls-7" points="330.16 19.71 93.3 19.71 93.3 14.93 330.16 19.71"/><text class="cls-8" transform="translate(79.14 112.98)">MICHO<tspan class="cls-9" x="105.56" y="0">A</tspan><tspan x="126.03" y="0">C</tspan><tspan class="cls-9" x="147.86" y="0">Á</tspan><tspan x="168.33" y="0">N</tspan></text><path class="cls-10" d="M241.67,85.12l2.2.06,4-3.62s1.94-1.63-3.85-1.1l-2.61,3.71A.58.58,0,0,0,241.67,85.12Z"/></g></g></svg>